<svg width="705" height="193" viewBox="0 0 705 193" fill="none" xmlns="http://www.w3.org/2000/svg">
<path fill-rule="evenodd" clip-rule="evenodd" d="M109.256 67.6478L134.068 0H148.537L213.648 159.818L279.417 0H307.698V190.072H285.336V40.1189L224.171 190.072H204.441L141.96 40.1189L88.03 190.072H64.3533L82.5516 140.455C67.7452 153.293 48.4964 166.647 32.1159 163.208C3.19676 157.137 0 159.085 0 159.085C0 159.085 6.85717 139.661 23.9942 130.722C29.5884 127.803 31.5682 126.715 32.3087 126.308C32.6972 126.094 32.7446 126.068 32.7939 126.064C32.8007 126.063 32.8076 126.063 32.8154 126.063C32.973 126.059 33.5173 126.044 41.9289 122.404C53.3058 117.48 69.6936 117.58 84.0511 117.667C86.3996 117.681 88.6937 117.695 90.9028 117.687L92.3935 113.622C72.0552 114.219 35.0088 114.946 21.8514 96.8672C4.46319 72.9752 0.785222 72.2776 0.785222 72.2776C0.785222 72.2776 18.8949 62.462 37.6039 67.3172C43.7113 68.9022 45.9101 69.4216 46.7325 69.6159C47.1639 69.7178 47.2166 69.7303 47.256 69.7601C47.2615 69.7643 47.2667 69.7687 47.2726 69.7738C47.3923 69.8765 47.8056 70.2309 56.4877 73.1686C68.2305 77.142 80.3234 88.2022 90.9183 97.8922L90.9198 97.8937C92.7805 99.5955 94.595 101.255 96.3533 102.826L98.5974 96.7079C97.4856 95.4547 96.3386 94.1753 95.1715 92.8734C85.6406 82.242 74.762 70.1074 70.6519 58.4172C67.4636 49.3488 67.2359 49.3388 67.1492 49.2231C67.0632 49.1084 67.1159 48.8897 64.5558 39.6254C59.4145 21.0205 68.2815 3.21133 68.2815 3.21133C68.2815 3.21133 69.0473 6.86529 92.3084 24.4234C103.447 32.8314 107.665 50.6162 109.256 67.6478ZM114.337 135.483L121.572 115.753H164.322L172.872 135.483H114.337Z" fill="url(#paint0_linear_21_341)"/>
<path d="M365.826 76.2956H349.702L347.034 84.0096H338.508L353.066 43.4676H362.52L377.078 84.0096H368.494L365.826 76.2956ZM363.622 69.7996L357.764 52.8636L351.906 69.7996H363.622ZM390.64 77.5716H403.98V84.0096H382.52V43.5256H390.64V77.5716ZM453.279 43.5256V84.0096H445.159V57.6776L434.313 84.0096H428.165L417.261 57.6776V84.0096H409.141V43.5256H418.363L431.239 73.6276L444.115 43.5256H453.279ZM469.427 43.5256V84.0096H461.307V43.5256H469.427ZM491.601 43.5256C495.855 43.5256 499.586 44.357 502.795 46.0196C506.043 47.6823 508.537 50.0603 510.277 53.1536C512.056 56.2083 512.945 59.7656 512.945 63.8256C512.945 67.8856 512.056 71.443 510.277 74.4976C508.537 77.5136 506.043 79.853 502.795 81.5156C499.586 83.1783 495.855 84.0096 491.601 84.0096H477.449V43.5256H491.601ZM491.311 77.1076C495.565 77.1076 498.851 75.9476 501.171 73.6276C503.491 71.3076 504.651 68.0403 504.651 63.8256C504.651 59.611 503.491 56.3243 501.171 53.9656C498.851 51.5683 495.565 50.3696 491.311 50.3696H485.569V77.1076H491.311ZM537.815 84.4156C534.026 84.4156 530.546 83.5263 527.375 81.7476C524.205 79.969 521.691 77.5136 519.835 74.3816C517.979 71.211 517.051 67.6343 517.051 63.6516C517.051 59.7076 517.979 56.1696 519.835 53.0376C521.691 49.867 524.205 47.3923 527.375 45.6136C530.546 43.835 534.026 42.9456 537.815 42.9456C541.643 42.9456 545.123 43.835 548.255 45.6136C551.426 47.3923 553.92 49.867 555.737 53.0376C557.593 56.1696 558.521 59.7076 558.521 63.6516C558.521 67.6343 557.593 71.211 555.737 74.3816C553.92 77.5136 551.426 79.969 548.255 81.7476C545.085 83.5263 541.605 84.4156 537.815 84.4156ZM537.815 77.1656C540.251 77.1656 542.397 76.6243 544.253 75.5416C546.109 74.4203 547.559 72.835 548.603 70.7856C549.647 68.7363 550.169 66.3583 550.169 63.6516C550.169 60.945 549.647 58.5863 548.603 56.5756C547.559 54.5263 546.109 52.9603 544.253 51.8776C542.397 50.795 540.251 50.2536 537.815 50.2536C535.379 50.2536 533.214 50.795 531.319 51.8776C529.463 52.9603 528.013 54.5263 526.969 56.5756C525.925 58.5863 525.403 60.945 525.403 63.6516C525.403 66.3583 525.925 68.7363 526.969 70.7856C528.013 72.835 529.463 74.4203 531.319 75.5416C533.214 76.6243 535.379 77.1656 537.815 77.1656ZM599.189 84.0096H591.069L572.683 56.2276V84.0096H564.563V43.4676H572.683L591.069 71.3076V43.4676H599.189V84.0096ZM615.333 50.0796V60.2296H628.963V66.6676H615.333V77.3976H630.703V84.0096H607.213V43.4676H630.703V50.0796H615.333ZM652.06 84.4156C649.237 84.4156 646.685 83.9323 644.404 82.9656C642.161 81.999 640.383 80.607 639.068 78.7896C637.753 76.9723 637.077 74.8263 637.038 72.3516H645.738C645.854 74.0143 646.434 75.329 647.478 76.2956C648.561 77.2623 650.03 77.7456 651.886 77.7456C653.781 77.7456 655.269 77.301 656.352 76.4116C657.435 75.4836 657.976 74.285 657.976 72.8156C657.976 71.617 657.609 70.631 656.874 69.8576C656.139 69.0843 655.211 68.485 654.09 68.0596C653.007 67.5956 651.499 67.093 649.566 66.5516C646.937 65.7783 644.791 65.0243 643.128 64.2896C641.504 63.5163 640.093 62.3756 638.894 60.8676C637.734 59.321 637.154 57.2716 637.154 54.7196C637.154 52.3223 637.753 50.2343 638.952 48.4556C640.151 46.677 641.833 45.3236 643.998 44.3956C646.163 43.429 648.638 42.9456 651.422 42.9456C655.598 42.9456 658.981 43.9703 661.572 46.0196C664.201 48.0303 665.651 50.853 665.922 54.4876H656.99C656.913 53.0956 656.313 51.955 655.192 51.0656C654.109 50.1376 652.659 49.6736 650.842 49.6736C649.257 49.6736 647.981 50.0796 647.014 50.8916C646.086 51.7036 645.622 52.883 645.622 54.4296C645.622 55.5123 645.97 56.421 646.666 57.1556C647.401 57.8516 648.29 58.4316 649.334 58.8956C650.417 59.321 651.925 59.8236 653.858 60.4036C656.487 61.177 658.633 61.9503 660.296 62.7236C661.959 63.497 663.389 64.657 664.588 66.2036C665.787 67.7503 666.386 69.7803 666.386 72.2936C666.386 74.459 665.825 76.4696 664.704 78.3256C663.583 80.1816 661.939 81.6703 659.774 82.7916C657.609 83.8743 655.037 84.4156 652.06 84.4156ZM352.675 120.135V133.26H370.3V141.585H352.675V155.46H372.55V164.01H342.175V111.585H372.55V120.135H352.675ZM392.592 155.685H409.842V164.01H382.092V111.66H392.592V155.685ZM491.462 111.66V164.01H480.962V129.96L466.937 164.01H458.987L444.887 129.96V164.01H434.387V111.66H446.312L462.962 150.585L479.612 111.66H491.462ZM533.943 154.035H513.093L509.643 164.01H498.618L517.443 111.585H529.668L548.493 164.01H537.393L533.943 154.035ZM531.093 145.635L523.518 123.735L515.943 145.635H531.093ZM600.304 164.01H589.804L566.029 128.085V164.01H555.529V111.585H566.029L589.804 147.585V111.585H600.304V164.01ZM642.781 154.035H621.931L618.481 164.01H607.456L626.281 111.585H638.506L657.331 164.01H646.231L642.781 154.035ZM639.931 145.635L632.356 123.735L624.781 145.635H639.931Z" fill="#0932A4"/>
<defs>
<linearGradient id="paint0_linear_21_341" x1="153.849" y1="0" x2="153.849" y2="190.072" gradientUnits="userSpaceOnUse">
<stop stop-color="#0932A4"/>
<stop offset="1" stop-color="#4BA2E5"/>
</linearGradient>
</defs>
</svg>
